<?xml version="1.0" standalone="no"?>
<!DOCTYPE svg PUBLIC "-//W3C//DTD SVG 20010904//EN"
 "http://www.w3.org/TR/2001/REC-SVG-20010904/DTD/svg10.dtd">
<svg version="1.0" xmlns="http://www.w3.org/2000/svg"
 width="1638.000000pt" height="1638.000000pt" viewBox="0 0 1638.000000 1638.000000"
 preserveAspectRatio="xMidYMid meet">

<g transform="translate(0.000000,1638.000000) scale(0.100000,-0.100000)"
fill="#000000" stroke="none">
<path d="M0 8190 l0 -8190 8190 0 8190 0 0 8190 0 8190 -8190 0 -8190 0 0
-8190z m8072 7794 c166 -57 240 -138 491 -539 42 -66 72 -122 69 -125 -4 -3
-136 -4 -294 -2 l-286 3 -43 57 c-23 31 -130 167 -237 300 -152 190 -192 246
-181 253 27 17 134 49 214 64 90 16 202 12 267 -11z m767 1 c68 -8 170 -57
232 -113 50 -45 145 -179 172 -242 8 -19 51 -110 96 -202 44 -91 81 -171 81
-177 0 -7 -14 -9 -37 -6 -21 2 -87 11 -148 19 -60 9 -166 20 -235 26 -69 6
-133 13 -142 16 -9 3 -58 71 -109 152 -51 81 -139 221 -196 311 -61 97 -100
168 -95 173 23 23 246 60 307 52 11 -2 44 -6 74 -9z m-1564 -90 c74 -26 152
-80 225 -154 64 -66 351 -423 345 -429 -2 -2 -86 -12 -187 -22 -100 -10 -231
-24 -291 -31 l-107 -12 -26 24 c-14 13 -65 69 -112 124 -172 199 -333 351
-392 370 -11 3 -20 12 -20 19 0 16 164 92 238 111 31 7 66 16 77 19 42 10 201
-1 250 -19z m2460 -39 c122 -44 214 -130 277 -257 40 -81 186 -505 176 -514
-3 -3 -70 10 -149 29 -155 37 -249 58 -344 77 -33 7 -65 17 -72 23 -6 6 -39
79 -73 161 -101 244 -159 354 -224 423 -18 20 -26 35 -20 41 20 19 144 39 251
40 95 1 122 -3 178 -23z m-3275 -123 c94 -31 174 -85 275 -187 104 -105 295
-321 295 -335 0 -4 -42 -15 -92 -25 -51 -9 -166 -35 -255 -57 -88 -21 -168
-39 -176 -39 -12 0 -135 98 -422 335 -22 19 -71 59 -110 90 -38 32 -71 61 -73
65 -7 20 142 114 232 147 92 34 233 36 326 6z m4031 -52 c209 -66 325 -229
400 -561 68 -304 66 -290 48 -290 -6 0 -25 6 -42 14 -50 22 -241 90 -369 131
-65 21 -124 43 -132 49 -13 10 -31 58 -124 346 -92 283 -103 321 -97 330 12
19 242 5 316 -19z m-4808 -206 c121 -42 228 -115 505 -347 53 -45 98 -87 100
-94 2 -6 -7 -14 -20 -16 -37 -8 -265 -84 -358 -118 -163 -61 -147 -61 -247 0
-187 114 -568 373 -568 385 0 21 131 121 210 159 139 69 241 78 378 31z m5502
-60 c203 -38 346 -167 404 -363 29 -95 89 -537 76 -550 -2 -2 -97 41 -210 97
-113 55 -208 101 -211 101 -3 0 -29 11 -58 24 -61 28 -56 15 -86 216 -27 178
-61 315 -100 399 -17 35 -30 67 -30 71 0 23 109 25 215 5z m-6205 -296 c75
-30 168 -84 484 -284 53 -33 95 -63 96 -66 0 -3 -30 -19 -67 -34 -38 -16 -155
-71 -261 -122 -143 -69 -199 -92 -215 -87 -27 8 -203 100 -237 124 -94 64
-324 169 -438 200 -24 6 -42 15 -40 20 6 17 141 152 185 186 105 80 186 105
319 100 73 -3 107 -11 174 -37z m6945 -71 c199 -41 366 -210 420 -423 17 -68
22 -545 6 -545 -5 0 -16 6 -23 13 -17 16 -270 176 -378 239 -47 27 -88 53 -92
56 -7 7 -26 163 -68 570 -6 52 -8 97 -5 102 6 9 64 4 140 -12z m-7668 -344
c40 -13 112 -43 160 -65 335 -160 433 -209 433 -216 0 -5 -35 -29 -77 -53 -43
-24 -148 -87 -233 -140 -85 -53 -160 -100 -166 -103 -11 -7 -215 61 -444 148
-69 26 -168 63 -220 82 -52 20 -99 39 -104 44 -14 13 74 136 144 203 134 128
311 163 507 100z m8416 -121 c115 -37 210 -106 268 -195 77 -120 97 -238 74
-449 -22 -207 -35 -312 -40 -327 -3 -8 -41 18 -102 70 -54 46 -155 127 -226
181 l-127 98 0 318 c0 175 3 321 8 325 10 10 80 0 145 -21z m-4466 -136 c13
-18 31 -42 41 -53 10 -10 88 -111 173 -224 176 -232 337 -444 641 -844 54 -71
98 -134 98 -142 0 -17 -40 -84 -50 -84 -5 0 -55 15 -112 34 -57 18 -170 55
-253 81 -82 26 -181 58 -219 71 -38 13 -71 24 -73 24 -21 0 60 -307 115 -438
118 -276 300 -435 592 -518 74 -20 300 -30 383 -15 194 34 383 128 612 306
127 98 162 133 145 139 -8 3 -142 37 -298 76 -156 38 -288 72 -293 76 -13 8
-9 122 5 133 6 5 254 107 551 226 297 119 554 222 570 229 17 8 75 31 130 51
55 21 106 42 113 48 8 7 12 5 12 -6 0 -13 -50 -168 -84 -262 -35 -94 -99 -272
-106 -295 -5 -14 -27 -77 -50 -140 -23 -63 -68 -191 -101 -285 -33 -93 -63
-179 -68 -190 -9 -20 -27 -71 -126 -350 -32 -88 -75 -209 -97 -270 -22 -60
-44 -123 -49 -140 -6 -16 -14 -37 -18 -45 -4 -8 -16 -43 -26 -77 -11 -35 -24
-63 -30 -63 -5 0 -35 12 -65 26 -30 14 -98 44 -150 66 -52 22 -113 48 -135 58
-22 10 -87 34 -145 55 -58 20 -121 42 -140 50 -159 58 -497 145 -695 179 -260
44 -323 51 -590 67 -745 43 -1522 -110 -2273 -450 -63 -28 -118 -51 -122 -51
-9 0 -12 7 -84 210 -24 69 -107 301 -184 515 -77 215 -177 494 -222 620 -45
127 -100 280 -122 340 -22 61 -44 121 -48 135 -4 14 -27 77 -50 140 -45 122
-56 160 -47 160 9 0 105 -38 154 -60 24 -11 46 -20 49 -20 3 0 20 -6 37 -14
18 -8 74 -30 124 -50 89 -34 955 -377 999 -396 17 -6 22 -20 27 -62 3 -34 1
-57 -6 -64 -7 -6 -84 -30 -172 -54 -197 -53 -427 -119 -432 -124 -6 -5 137
-122 243 -200 117 -85 298 -178 411 -212 105 -31 309 -44 416 -25 242 42 449
169 574 352 71 104 146 290 188 469 9 36 20 81 25 101 15 54 13 61 -12 54 -29
-9 -285 -102 -453 -165 -185 -69 -177 -68 -214 -23 -17 20 -31 41 -31 44 0 4
134 186 298 405 164 220 383 513 486 652 104 138 194 252 200 252 6 0 21 -15
33 -33z m-4627 -236 c102 -23 562 -174 608 -200 9 -5 -21 -33 -92 -84 -57 -42
-160 -122 -228 -177 -122 -100 -123 -101 -167 -95 -55 8 -201 47 -371 100
-116 36 -272 65 -348 65 l-64 0 41 76 c148 274 349 375 621 315z m9721 -146
c166 -57 281 -166 341 -323 19 -46 23 -78 23 -167 0 -97 -6 -133 -49 -315 -27
-113 -52 -209 -56 -213 -4 -5 -34 20 -66 54 -77 81 -230 233 -285 285 -75 69
-71 56 -55 205 8 74 22 208 31 299 9 91 18 171 20 178 6 16 43 15 96 -3z
m-10224 -431 c131 -26 480 -111 495 -120 5 -3 -27 -38 -69 -77 -43 -39 -140
-132 -216 -206 l-137 -135 -188 32 c-103 18 -285 49 -404 69 -151 25 -218 40
-218 49 0 36 100 204 157 265 135 143 303 179 580 123z m10866 -176 c228 -122
324 -326 272 -580 -17 -83 -136 -448 -146 -448 -3 0 -51 57 -105 127 -55 69
-117 147 -139 173 -22 26 -51 60 -64 76 -13 16 -35 41 -48 55 l-25 27 71 283
c88 353 81 329 93 329 6 0 47 -19 91 -42z m-11333 -448 c63 -10 147 -22 185
-25 39 -4 77 -9 85 -10 8 -1 40 -6 70 -10 30 -4 59 -9 63 -12 6 -3 -91 -124
-124 -153 -3 -3 -45 -54 -93 -115 -49 -60 -100 -125 -115 -143 -26 -32 -27
-33 -118 -33 -50 0 -174 5 -275 12 -197 13 -365 8 -440 -12 -26 -7 -50 -10
-53 -7 -14 14 71 224 119 294 39 57 125 143 171 169 131 75 267 87 525 45z
m11941 -278 c73 -67 126 -146 155 -227 28 -78 26 -248 -4 -344 -23 -74 -180
-411 -191 -411 -3 0 -17 19 -30 43 -13 23 -51 85 -84 137 -33 52 -65 104 -71
115 -6 11 -40 62 -74 113 l-63 93 30 87 c17 48 53 152 82 232 28 80 57 164 65
187 7 23 18 51 24 63 l11 21 41 -23 c22 -13 71 -51 109 -86z m-2891 -546 c0
-384 4 -627 9 -631 14 -8 19 36 26 200 18 472 18 467 33 472 23 9 189 -45 300
-97 367 -175 767 -564 1022 -995 29 -49 60 -101 69 -115 8 -14 43 -81 77 -150
190 -386 304 -812 304 -1140 l0 -110 -42 7 c-66 12 -306 8 -373 -6 -97 -19
-193 -41 -300 -67 -255 -61 -413 -77 -564 -55 -80 12 -96 16 -168 47 -17 8
-34 14 -38 14 -16 0 -165 105 -165 115 0 7 24 25 53 40 85 47 109 60 180 103
37 23 70 42 72 42 3 0 24 12 48 27 23 15 67 41 97 58 213 123 567 329 577 337
9 8 5 24 -18 69 -32 64 -33 64 -84 18 -65 -59 -83 -74 -180 -142 -252 -179
-489 -258 -738 -244 -352 20 -555 166 -637 459 -21 75 -30 127 -54 308 -21
150 -44 272 -62 326 -8 25 -13 48 -10 51 2 3 44 -21 91 -52 48 -31 88 -55 90
-53 3 2 -29 82 -71 178 -158 367 -264 653 -301 810 -9 36 -18 116 -20 177 -4
97 -2 122 17 178 23 69 81 155 148 219 47 45 47 45 62 -54 5 -36 16 -99 23
-140 8 -41 46 -257 86 -480 84 -469 80 -454 87 -447 3 2 9 85 15 183 29 545
51 885 64 980 3 23 15 50 25 59 19 17 228 124 243 125 4 0 7 -281 7 -624z
m-6758 521 c19 -8 45 -27 57 -43 67 -86 76 -167 76 -711 0 -248 1 -450 3 -448
5 4 70 239 88 315 8 36 19 83 25 105 19 81 48 306 64 500 9 110 19 202 22 205
11 11 161 -159 186 -212 86 -181 50 -425 -127 -871 -26 -65 -61 -148 -77 -185
-17 -37 -37 -80 -44 -97 -44 -100 -79 -175 -96 -209 -11 -21 -18 -40 -16 -43
2 -2 40 23 83 55 115 85 199 142 207 142 4 0 1 -12 -7 -27 -32 -64 -102 -305
-120 -418 -18 -110 -75 -322 -102 -382 -8 -17 -14 -34 -14 -37 0 -21 -90 -143
-139 -189 -151 -139 -458 -209 -708 -162 -240 46 -451 166 -687 394 -87 85
-90 78 -25 -46 117 -224 293 -359 614 -471 122 -42 341 -120 368 -131 15 -6
27 -14 27 -19 0 -27 -191 -139 -300 -176 -65 -22 -213 -46 -283 -46 -62 0
-242 23 -312 40 -22 5 -69 16 -105 24 -36 8 -115 26 -175 40 -161 36 -315 51
-411 38 -44 -6 -82 -8 -85 -4 -12 13 -29 137 -29 208 0 170 76 537 140 679 5
11 29 70 55 131 234 566 663 1101 1120 1397 117 75 347 185 423 202 l29 6 6
-68 c4 -37 12 -187 18 -333 5 -146 12 -274 14 -285 2 -11 4 -24 4 -28 1 -5 6
-5 12 -2 7 5 10 78 9 218 -1 117 -1 383 -1 591 l1 379 89 -6 c48 -3 104 -12
123 -20z m-2372 -360 c0 -4 -271 -416 -304 -464 -21 -30 0 -27 -536 -68 -107
-8 -221 -18 -252 -21 l-58 -7 0 50 c0 66 33 192 67 256 51 96 153 180 268 223
66 24 182 32 488 33 180 1 327 -1 327 -2z m12453 -327 c118 -110 157 -196 164
-360 5 -105 3 -121 -21 -188 -22 -64 -71 -155 -152 -282 -12 -19 -38 -61 -58
-92 -34 -54 -56 -73 -56 -46 0 6 -57 127 -126 269 l-127 257 34 59 c129 223
152 277 205 471 6 20 56 -12 137 -88z m-6018 -329 c539 -69 967 -242 1345
-544 112 -90 334 -318 425 -437 79 -102 165 -225 165 -234 0 -3 13 -24 29 -48
131 -196 322 -620 423 -938 11 -36 24 -74 29 -85 5 -11 20 -62 34 -114 13 -51
27 -96 30 -99 10 -10 5 75 -11 179 -16 110 -12 219 9 219 14 -1 58 -58 151
-199 87 -133 157 -203 240 -242 135 -63 251 -61 500 8 338 93 358 98 521 134
102 22 328 49 415 49 292 0 387 -114 453 -545 25 -161 28 -188 28 -292 0 -314
-101 -515 -341 -675 -41 -27 -76 -51 -78 -53 -2 -2 23 -22 56 -44 110 -75 212
-162 255 -220 57 -76 63 -88 77 -154 15 -66 4 -134 -36 -224 -25 -58 -39 -64
-82 -34 -15 11 -135 91 -267 178 -302 200 -308 204 -438 320 -93 83 -106 98
-95 112 64 83 196 236 239 276 30 28 93 79 142 114 48 34 87 65 87 69 0 18
-39 107 -46 107 -5 0 -56 -13 -114 -29 -334 -92 -397 -116 -528 -205 -110 -75
-251 -142 -357 -172 -112 -30 -357 -38 -470 -14 -248 51 -435 155 -630 350
-145 144 -229 272 -335 510 -12 28 -50 106 -85 175 -200 400 -355 581 -680
792 -195 127 -303 280 -450 644 -124 307 -203 446 -322 569 -150 156 -298 237
-548 301 -122 31 -186 60 -243 109 -89 78 -129 165 -139 307 -6 86 -5 88 18
98 37 16 448 3 624 -19z m-954 -2 c5 -8 7 -59 6 -114 -3 -119 -25 -174 -97
-245 -60 -60 -126 -94 -245 -125 -55 -15 -113 -31 -130 -35 -68 -18 -233 -92
-269 -120 -6 -5 -38 -30 -71 -56 -82 -63 -155 -143 -219 -239 -73 -109 -114
-194 -176 -365 -63 -175 -131 -319 -198 -420 -129 -196 -306 -358 -516 -475
-85 -46 -144 -100 -201 -180 -52 -73 -211 -339 -270 -450 -23 -44 -68 -129
-100 -190 -146 -277 -237 -410 -364 -535 -170 -168 -336 -251 -571 -287 -226
-34 -486 20 -756 155 -43 22 -115 54 -159 71 -44 18 -93 38 -110 46 -62 28
-413 165 -423 165 -16 0 -67 -109 -56 -118 5 -5 45 -37 89 -72 88 -71 385
-368 385 -386 0 -11 -115 -112 -210 -184 -25 -19 -47 -37 -50 -40 -25 -28
-547 -380 -564 -380 -16 0 -71 93 -92 153 -41 121 29 238 260 437 47 40 86 77
86 82 0 4 -21 19 -47 32 -173 89 -311 282 -343 478 -12 78 -12 308 0 408 5 41
15 125 21 185 18 172 70 252 229 354 96 62 151 80 264 88 153 9 361 -27 701
-121 88 -24 205 -56 260 -70 349 -87 569 -35 723 170 45 60 105 168 127 229
20 54 13 -19 -15 -167 -17 -90 -38 -201 -47 -248 -8 -47 -18 -91 -20 -97 -3
-7 0 -13 6 -13 6 0 11 5 11 10 0 6 25 62 55 126 30 64 55 118 55 120 0 2 27
59 59 126 68 142 111 236 111 244 0 3 8 24 19 47 26 57 83 221 120 344 179
586 588 1072 1147 1363 413 216 886 322 1403 315 135 -2 175 -5 182 -16z
m-5901 -4 c0 -2 -30 -59 -66 -125 -36 -67 -95 -182 -130 -255 l-65 -134 -52
-15 c-29 -8 -99 -22 -157 -31 -239 -37 -302 -50 -448 -91 -84 -24 -160 -44
-168 -44 -18 0 -18 29 1 151 32 215 122 351 280 425 83 38 159 54 395 80 124
14 257 29 295 33 91 11 115 12 115 6z m13217 -382 c124 -150 173 -263 173
-398 0 -157 -61 -278 -251 -504 -46 -55 -89 -100 -94 -100 -6 -1 -35 70 -64
157 -29 86 -59 171 -66 187 -7 17 -27 69 -44 116 l-32 86 127 199 c69 109 142
223 160 252 19 28 38 52 43 52 5 0 27 -21 48 -47z m-6865 -282 c120 -33 179
-57 272 -114 211 -128 376 -321 528 -619 71 -138 188 -406 188 -430 0 -11 -25
-22 -82 -38 -182 -49 -387 -126 -488 -183 -264 -149 -379 -319 -437 -642 -24
-136 -24 -618 0 -884 10 -102 19 -186 21 -188 5 -5 250 -10 270 -5 17 5 18 12
12 95 -4 49 -22 227 -41 395 -19 168 -35 319 -35 334 l0 28 788 -2 787 -3 -2
-165 c-6 -395 -49 -641 -145 -830 -88 -176 -224 -291 -456 -386 l-22 -9 27
-40 c15 -22 97 -134 183 -250 366 -494 446 -677 479 -1105 16 -198 31 -643 23
-652 -4 -3 -27 -8 -52 -10 l-45 -3 -57 115 c-32 63 -127 257 -212 430 -281
576 -352 680 -542 803 -222 142 -414 166 -1159 143 -212 -7 -346 -6 -497 4
-219 13 -371 6 -528 -26 -280 -58 -469 -197 -620 -459 -46 -81 -258 -506 -416
-832 -32 -68 -62 -123 -67 -123 -14 0 -73 140 -97 230 -34 128 -40 378 -11
527 54 284 153 506 331 749 80 107 170 206 260 283 68 58 75 64 173 133 32 22
55 44 50 48 -4 4 -37 17 -73 30 -371 131 -587 429 -639 885 -17 155 -20 196
-23 345 l-3 145 779 3 c429 1 783 -1 788 -6 8 -8 2 -79 -27 -372 -29 -280 -43
-445 -40 -448 2 -2 66 -6 144 -9 115 -5 141 -3 145 8 15 40 36 438 36 660 0
389 -30 563 -132 762 -91 176 -302 328 -553 397 -86 24 -255 64 -312 75 -18 4
-33 9 -33 12 0 23 110 290 175 428 223 468 523 724 920 785 105 16 379 5 467
-19z m-6702 -48 c0 -7 -63 -163 -91 -228 -17 -37 -81 -220 -92 -259 -9 -33
-17 -42 -61 -62 -28 -12 -107 -39 -176 -59 -351 -103 -479 -152 -551 -212 -16
-14 -33 -21 -39 -18 -7 4 -9 56 -6 153 7 222 40 317 150 420 94 89 197 127
561 207 44 10 118 28 165 40 89 24 140 30 140 18z m13870 -495 c82 -90 131
-217 131 -345 0 -158 -58 -280 -203 -419 -94 -91 -203 -184 -214 -184 -6 0
-18 42 -28 93 -10 50 -38 171 -62 267 -24 96 -44 182 -44 191 0 24 347 438
368 438 8 1 31 -18 52 -41z m-14138 -233 c3 -3 -3 -34 -14 -68 -11 -34 -43
-156 -72 -272 l-52 -210 -170 -85 c-93 -47 -216 -107 -274 -134 -58 -27 -154
-74 -214 -103 -60 -29 -113 -50 -117 -46 -18 18 -39 132 -39 208 0 152 45 262
149 366 91 91 197 142 556 265 55 18 129 45 165 58 77 28 75 28 82 21z m14393
-697 c101 -248 51 -436 -168 -638 -70 -63 -260 -209 -268 -204 -4 2 -10 43
-13 91 -8 96 -18 189 -43 360 -8 61 -14 116 -12 122 2 5 103 94 224 195 177
150 222 183 232 173 7 -7 29 -51 48 -99z m-14575 -80 c0 -7 -9 -60 -19 -118
-10 -58 -26 -172 -36 -255 -22 -197 -20 -190 -57 -213 -18 -10 -183 -110 -366
-221 -183 -110 -336 -201 -341 -201 -23 0 -45 247 -32 361 23 206 116 308 409
449 92 45 226 110 297 145 72 35 133 64 138 64 4 1 7 -5 7 -11z m14623 -675
c92 -200 99 -349 24 -508 -58 -122 -166 -216 -413 -363 -75 -45 -100 -52 -90
-26 3 9 6 145 6 304 l0 288 118 85 c129 93 234 189 277 255 15 23 31 42 35 42
4 0 23 -35 43 -77z m-14731 -370 c-6 -148 -8 -281 -6 -294 3 -13 1 -29 -3 -34
-14 -19 -94 -79 -278 -212 -99 -71 -229 -164 -288 -207 -60 -43 -112 -74 -116
-70 -4 5 -17 34 -29 64 -65 172 -69 326 -11 446 57 117 143 192 458 402 150
101 275 181 278 179 2 -3 0 -126 -5 -274z m4437 -199 c45 -55 108 -184 121
-250 8 -36 10 -99 7 -164 -6 -126 -31 -208 -113 -376 -31 -63 -54 -117 -52
-119 2 -3 15 6 29 18 151 135 251 217 266 217 23 0 162 -252 199 -360 28 -85
26 -211 -6 -275 -49 -98 -211 -233 -415 -345 -33 -18 -64 -36 -70 -40 -5 -4
-37 -22 -70 -40 -33 -18 -80 -44 -105 -58 -25 -13 -74 -40 -110 -60 -122 -66
-315 -186 -404 -250 -377 -270 -544 -511 -617 -887 -31 -160 -9 -555 45 -778
7 -32 10 -60 5 -63 -15 -9 -207 135 -301 226 -130 126 -227 271 -275 411 -25
75 -28 97 -28 214 0 213 54 368 208 595 101 149 334 405 496 545 44 38 78 71
77 73 -6 6 -136 -28 -226 -60 -224 -77 -407 -206 -531 -374 -83 -113 -169
-323 -185 -454 -10 -85 -16 -89 -58 -44 -132 137 -237 325 -258 456 -35 230
103 448 430 679 40 28 72 53 72 56 0 11 -199 -10 -268 -28 -226 -59 -309 -167
-392 -506 -6 -24 -15 -43 -19 -43 -27 0 -164 210 -202 309 -50 131 -64 290
-35 399 45 167 205 338 401 427 33 15 74 33 90 41 137 63 453 136 820 189 61
9 135 20 165 25 30 5 91 12 135 15 257 20 472 61 617 117 139 53 289 169 368
283 40 58 105 191 126 258 10 31 21 57 25 57 4 0 21 -16 38 -36z m5136 -39
c49 -132 113 -233 214 -338 68 -71 117 -106 219 -156 158 -79 326 -114 732
-157 166 -17 360 -43 505 -69 90 -16 110 -19 240 -48 69 -15 271 -78 310 -96
11 -6 54 -25 95 -44 199 -92 341 -234 396 -397 15 -43 19 -83 18 -185 0 -115
-3 -139 -28 -210 -30 -88 -107 -223 -168 -297 -42 -51 -58 -59 -58 -30 0 46
-54 226 -90 299 -73 148 -170 208 -425 259 -82 16 -98 17 -93 5 2 -5 46 -56
99 -113 225 -242 276 -316 305 -446 24 -108 4 -231 -69 -416 -46 -118 -126
-278 -136 -272 -4 3 -11 29 -14 58 -8 71 -50 213 -87 290 -88 186 -243 342
-470 474 -112 64 -344 174 -348 163 -2 -4 77 -115 176 -246 252 -335 347 -480
435 -663 129 -269 114 -482 -55 -734 -59 -88 -236 -260 -354 -344 -104 -74
-129 -85 -120 -54 19 65 76 382 81 452 8 99 -8 308 -30 402 -80 345 -262 600
-590 824 -93 64 -300 192 -410 254 -512 290 -601 346 -696 440 -129 130 -147
238 -77 454 22 67 32 92 102 249 19 42 38 77 41 77 3 0 40 -28 83 -63 247
-203 292 -237 292 -227 0 6 -11 30 -24 53 -105 185 -179 355 -196 453 -18 103
15 212 118 397 24 43 45 77 47 75 2 -2 15 -34 30 -73z m5195 -305 c7 -48 11
-139 9 -210 -4 -115 -7 -130 -35 -191 -40 -84 -89 -138 -182 -201 -72 -49
-372 -201 -380 -193 -2 2 3 61 12 132 9 70 21 162 26 203 5 41 12 116 16 165
l6 90 52 35 c149 101 452 277 457 267 3 -7 12 -50 19 -97z m-14766 -67 c4 -49
15 -176 25 -283 l18 -195 -31 -34 c-31 -33 -316 -290 -451 -406 -38 -33 -85
-73 -103 -90 -19 -16 -39 -30 -45 -30 -7 0 -31 37 -54 83 -110 220 -71 454
104 627 32 31 128 108 213 170 85 63 189 143 230 179 41 36 78 65 82 66 3 0 9
-39 12 -87z m14655 -693 c5 -17 16 -75 22 -129 11 -84 10 -110 -3 -178 -37
-189 -149 -319 -349 -405 -112 -49 -297 -118 -314 -118 -11 0 -12 7 -4 33 32
101 95 374 124 532 3 15 29 31 97 60 197 82 332 158 382 214 25 28 32 27 45
-9z m-14574 -62 c2 -13 14 -77 26 -143 22 -127 65 -332 74 -356 3 -9 -53 -86
-145 -199 -83 -102 -174 -214 -203 -249 -72 -88 -138 -169 -163 -199 -12 -15
-26 -22 -32 -18 -7 4 -32 37 -56 74 -137 211 -157 359 -73 537 61 127 139 211
477 508 41 37 78 67 82 67 4 0 10 -10 13 -22z m7865 -523 c206 -77 349 -238
483 -545 73 -167 146 -456 148 -583 1 -63 -11 -89 -130 -273 -59 -92 -46 -56
-381 -1074 -320 -973 -288 -890 -338 -890 -13 0 -33 -5 -44 -11 -15 -8 -23 -8
-33 3 -14 15 -124 344 -155 463 -11 44 -25 125 -30 180 -26 261 -50 366 -110
491 -50 104 -152 204 -263 258 -114 56 -131 56 -234 5 -68 -33 -105 -61 -164
-119 -131 -131 -184 -277 -208 -575 -13 -165 -31 -244 -107 -467 -37 -106 -68
-203 -71 -216 -8 -32 -16 -35 -78 -20 -55 12 -55 13 -73 68 -39 116 -282 837
-445 1315 -93 275 -172 511 -175 524 -3 13 1 27 9 31 13 8 -23 56 -123 165
-16 17 -38 50 -49 75 l-21 45 68 205 c38 113 94 266 125 341 73 176 191 406
234 456 44 52 146 98 277 125 96 20 125 21 443 17 617 -7 942 -3 1025 15 101
21 354 16 420 -9z m-7704 -222 c16 -71 132 -440 150 -480 8 -17 14 -35 14 -39
0 -4 -26 -49 -59 -99 -32 -49 -89 -139 -127 -200 -38 -60 -87 -138 -109 -172
-22 -34 -64 -100 -94 -147 -30 -48 -59 -86 -66 -86 -16 0 -86 84 -134 161 -59
95 -84 178 -84 279 -1 130 43 242 151 384 101 134 337 426 344 426 4 0 10 -12
14 -27z m14242 -176 c10 -311 -128 -479 -468 -565 -176 -45 -261 -63 -270 -57
-5 3 0 26 11 50 25 56 88 230 141 393 37 111 44 124 72 137 78 35 492 162 501
153 6 -5 11 -55 13 -111z m-9994 -372 c0 -258 -4 -336 -17 -404 -20 -98 -48
-165 -84 -203 -24 -25 -34 -28 -95 -28 -38 0 -115 11 -174 25 -58 14 -114 25
-124 25 -10 0 -30 4 -44 10 l-25 9 48 50 c86 88 110 164 137 425 19 195 39
259 100 320 52 52 172 97 244 93 l35 -2 -1 -320z m5150 295 c32 -12 67 -36 92
-62 70 -74 79 -106 104 -342 12 -109 28 -204 41 -243 22 -66 70 -138 121 -181
16 -13 26 -27 23 -31 -4 -3 -36 -11 -73 -18 -37 -7 -96 -19 -132 -28 -179 -43
-236 -38 -276 21 -55 81 -74 166 -81 356 -5 143 12 531 24 552 8 12 96 -2 157
-24z m-6006 -492 c31 -107 122 -324 173 -413 24 -43 70 -106 103 -142 108
-118 183 -153 330 -153 144 0 280 42 475 146 l84 45 38 -26 c49 -35 263 -254
321 -330 118 -155 247 -377 323 -555 77 -181 119 -314 164 -525 30 -141 39
-383 20 -522 -15 -114 -56 -254 -77 -267 -9 -5 -114 48 -147 73 -5 5 -172 100
-370 211 -473 267 -628 358 -890 529 -242 156 -475 355 -573 489 -307 417
-330 953 -60 1434 23 43 48 78 54 78 6 0 20 -33 32 -72z m6785 -61 c25 -37 64
-115 87 -172 142 -364 107 -774 -93 -1082 -152 -237 -536 -526 -1272 -959 -44
-26 -137 -82 -207 -125 -123 -77 -196 -116 -288 -157 -89 -39 -303 -122 -317
-122 -25 0 -55 113 -73 275 -19 178 17 449 89 678 99 311 274 638 474 887 94
117 283 310 304 310 7 0 44 -15 81 -34 299 -150 540 -188 694 -110 63 32 148
111 198 184 57 85 175 336 205 439 4 13 14 40 22 59 14 34 15 34 32 16 10 -10
39 -49 64 -87z m-9907 8 c7 -16 22 -52 32 -80 21 -53 44 -104 123 -274 27 -57
49 -110 49 -118 0 -8 -66 -143 -147 -301 -81 -158 -160 -313 -177 -346 -16
-32 -36 -60 -43 -63 -19 -7 -119 72 -166 132 -53 67 -83 131 -103 223 -15 66
-15 87 -5 156 22 143 29 158 230 481 57 94 121 192 140 219 34 48 35 48 45 25
5 -13 15 -37 22 -54z m13698 -132 c-11 -186 -46 -295 -126 -395 -70 -86 -209
-156 -357 -179 -61 -9 -322 -28 -329 -23 -1 1 42 91 97 200 55 110 113 229
130 266 17 37 39 69 48 71 10 3 52 13 93 22 41 9 152 34 245 55 94 21 177 39
186 39 14 1 16 -8 13 -56z m-13373 -555 c15 -38 123 -227 211 -371 72 -116 72
-108 -9 -299 -144 -344 -183 -457 -183 -529 0 -15 -4 -30 -8 -33 -15 -9 -138
82 -202 150 -63 67 -104 136 -131 219 -18 57 -15 200 6 271 30 104 272 624
291 624 6 0 18 -15 25 -32z m13029 -199 c0 -38 -33 -163 -60 -231 -36 -88 -90
-158 -161 -208 -113 -79 -210 -100 -468 -100 -109 0 -200 2 -203 5 -3 3 47 85
112 183 64 97 134 207 154 244 21 37 41 70 44 72 4 2 86 12 182 21 96 9 204
20 240 25 36 4 86 8 113 9 41 1 47 -2 47 -20z m-12482 -668 c47 -63 107 -142
134 -175 61 -75 61 -58 -17 -391 -88 -373 -107 -449 -114 -458 -10 -10 -113
46 -182 98 -155 120 -228 300 -201 493 12 85 36 163 105 347 25 66 58 156 73
200 38 113 40 113 82 53 19 -29 73 -104 120 -167z m12052 -50 c0 -23 -69 -185
-104 -246 -75 -126 -163 -201 -280 -236 -60 -18 -88 -20 -220 -16 -130 4 -361
29 -372 40 -3 2 6 15 18 28 46 50 195 229 253 304 33 43 73 94 89 112 l28 33
294 0 c285 0 294 -1 294 -19z m-11615 -486 c54 -60 138 -150 187 -200 l88 -90
0 -55 c0 -50 -8 -129 -55 -580 -8 -74 -15 -141 -15 -147 0 -21 -35 -15 -116
22 -165 75 -270 179 -315 312 -32 92 -31 237 0 383 13 58 27 123 31 145 12 57
70 297 75 313 3 8 9 12 13 10 4 -2 52 -52 107 -113z m11049 -215 c17 0 -3 -80
-39 -155 -64 -133 -192 -236 -333 -266 -99 -21 -279 -7 -447 35 -82 20 -156
38 -163 41 -7 3 19 34 65 77 43 40 141 136 219 214 l142 141 274 -43 c150 -24
277 -44 282 -44z m-10379 -440 c66 -57 139 -117 162 -134 l42 -31 1 -399 0
-398 -27 6 c-56 14 -169 60 -225 93 -203 119 -274 333 -223 669 8 54 20 128
25 164 5 36 10 99 10 141 0 42 3 79 7 83 4 3 30 -15 57 -42 28 -27 105 -95
171 -152z m9326 -65 c147 -48 275 -76 372 -82 l98 -6 -6 -25 c-25 -101 -137
-255 -230 -317 -130 -86 -213 -99 -370 -57 -136 36 -402 120 -429 134 -20 11
-20 11 4 27 48 31 296 219 375 285 44 36 87 66 95 66 9 0 49 -11 91 -25z
m-8628 -461 c94 -64 175 -121 179 -127 6 -11 23 -159 53 -462 7 -77 17 -171
21 -209 l7 -69 -64 6 c-153 15 -264 63 -356 154 -117 117 -151 215 -163 478
-11 224 -12 439 -4 448 3 3 39 -19 80 -49 41 -31 152 -107 247 -170z m8077
-75 c107 -39 235 -85 284 -102 48 -18 90 -37 93 -44 3 -7 -13 -32 -35 -55 -22
-24 -50 -55 -62 -70 -29 -37 -123 -109 -192 -146 -109 -59 -249 -65 -398 -16
-89 30 -411 185 -404 195 2 4 35 24 72 45 91 50 261 153 352 213 41 27 80 50
85 50 6 1 98 -31 205 -70z m-7597 -218 c56 -32 173 -94 259 -137 l157 -79 11
-45 c33 -143 139 -674 135 -678 -10 -10 -131 -1 -200 15 -190 42 -317 151
-375 319 -38 109 -46 157 -105 627 -3 21 -1 37 5 37 5 0 56 -26 113 -59z
m6978 -257 c148 -75 269 -141 269 -146 0 -14 -142 -152 -192 -187 -81 -55
-172 -84 -263 -84 -94 -1 -166 18 -280 74 -100 49 -358 211 -358 224 1 5 72
41 159 80 88 39 206 94 264 122 58 28 111 52 118 52 8 1 135 -60 283 -135z
m-6076 -161 c121 -46 231 -90 244 -96 19 -9 31 -35 58 -117 31 -99 83 -253
155 -468 22 -66 28 -96 21 -103 -18 -18 -175 -23 -245 -9 -134 28 -246 98
-315 198 -71 101 -90 154 -153 427 -18 77 -41 170 -50 207 -10 36 -16 69 -13
72 3 3 22 -2 42 -11 20 -9 135 -54 256 -100z m5258 -164 c111 -73 228 -148
259 -168 32 -20 58 -41 58 -48 0 -13 -111 -106 -177 -147 -190 -118 -398 -97
-623 63 -89 63 -285 230 -285 244 0 6 36 21 80 34 105 32 326 102 345 110 50
21 107 41 123 42 10 0 109 -58 220 -130z m-4708 -26 c109 -31 207 -57 345 -92
126 -31 146 -39 158 -61 59 -114 272 -581 272 -596 0 -19 -128 -46 -225 -46
-194 0 -320 75 -428 254 -47 79 -223 549 -209 562 3 4 13 4 21 0 9 -3 39 -13
66 -21z m3817 -165 c181 -164 254 -218 356 -264 34 -15 62 -32 62 -39 0 -13
-138 -105 -200 -133 -93 -41 -125 -47 -240 -47 -143 0 -210 22 -332 111 -68
50 -330 326 -320 336 5 5 49 15 98 23 91 13 225 41 369 74 44 11 88 20 98 20
9 1 58 -36 109 -81z m-2693 -67 c91 -11 168 -24 172 -28 4 -5 25 -36 46 -70
21 -34 83 -134 138 -223 55 -88 105 -169 110 -178 6 -10 20 -34 33 -53 29 -48
28 -55 -10 -73 -110 -49 -272 -63 -379 -32 -108 32 -232 127 -296 229 -33 52
-243 470 -243 484 0 6 54 1 133 -13 72 -12 206 -32 296 -43z m1908 -113 c60
-62 158 -164 219 -226 60 -62 110 -119 112 -126 1 -6 -14 -21 -35 -33 -21 -12
-54 -30 -74 -41 -102 -57 -289 -74 -399 -38 -139 46 -217 108 -352 276 -156
196 -190 241 -186 245 2 3 96 12 209 21 112 8 229 19 259 23 135 20 126 24
247 -101z m-1148 63 l223 -1 22 -27 c11 -15 52 -72 90 -128 101 -147 158 -215
243 -294 42 -39 75 -73 72 -75 -13 -12 -94 -47 -160 -70 -199 -69 -384 -33
-530 102 -77 71 -349 477 -335 500 2 4 38 5 78 1 40 -4 174 -8 297 -8z"/>
<path d="M12182 11558 c-101 -105 -142 -178 -142 -255 0 -89 61 -159 245 -279
89 -58 187 -145 198 -174 9 -25 24 5 44 90 13 54 18 115 18 215 0 140 0 140
-36 215 -27 57 -52 90 -101 136 -62 58 -134 104 -162 104 -7 0 -36 -24 -64
-52z"/>
<path d="M4057 11568 c-88 -61 -190 -161 -219 -215 -14 -26 -31 -74 -38 -107
-17 -74 -3 -181 42 -323 27 -85 32 -95 42 -78 20 36 107 113 205 182 116 82
185 148 205 198 23 55 20 131 -8 190 -25 55 -141 195 -159 194 -7 0 -38 -18
-70 -41z"/>
<path d="M12515 8819 c-49 -4 -191 -15 -315 -23 -124 -9 -286 -21 -360 -26
-74 -5 -147 -10 -162 -10 -43 0 -34 -21 35 -87 153 -147 288 -159 544 -47 57
25 119 53 136 63 18 10 76 41 130 70 53 29 97 57 97 62 0 5 -3 8 -7 8 -5 -1
-48 -5 -98 -10z"/>
<path d="M3680 8862 c0 -12 242 -159 320 -196 307 -141 532 -139 671 5 47 48
125 176 115 187 -2 1 -32 -13 -67 -32 -259 -141 -520 -141 -926 3 -62 22 -113
37 -113 33z"/>
<path d="M8758 7875 c-4 -6 -2 -31 3 -55 12 -56 37 -322 32 -333 -3 -4 -283
-7 -624 -7 -497 1 -621 3 -625 14 -3 7 7 86 21 175 14 90 25 168 25 174 0 24
-18 -12 -49 -98 -18 -49 -39 -103 -46 -120 -25 -56 -87 -226 -83 -229 6 -6
325 -84 393 -98 49 -9 159 -13 370 -13 290 0 304 1 434 28 154 33 309 72 318
81 3 3 -5 38 -19 78 -37 105 -88 251 -95 268 -4 8 -16 44 -28 80 -11 36 -24
60 -27 55z"/>
<path d="M7607 6238 c-79 -16 -127 -56 -151 -126 -18 -50 -33 -262 -20 -284 8
-13 22 -9 97 28 120 59 253 107 372 135 141 33 404 34 545 1 161 -37 247 -67
394 -140 71 -36 90 -42 97 -31 15 25 10 179 -8 238 -23 72 -97 150 -163 171
-36 11 -149 14 -585 15 -297 1 -557 -3 -578 -7z"/>
<path d="M5845 4591 c-38 -10 -88 -25 -110 -33 -22 -8 -69 -25 -105 -38 -36
-12 -69 -26 -73 -30 -4 -4 20 -17 55 -29 35 -12 90 -33 123 -46 33 -13 128
-49 210 -79 l150 -55 -3 -33 c-2 -18 -5 -34 -7 -36 -2 -2 -34 -8 -72 -14 -37
-5 -101 -15 -140 -21 l-73 -12 223 -94 c122 -52 251 -106 285 -121 l64 -27
-29 -20 c-15 -11 -48 -31 -73 -45 -112 -62 -160 -90 -160 -94 0 -3 51 -73 113
-157 62 -84 164 -223 227 -309 63 -87 121 -158 129 -158 7 0 35 12 63 28 42
23 49 31 45 52 -6 33 -181 540 -242 700 -90 236 -237 535 -296 603 -76 88
-154 106 -304 68z"/>
<path d="M10710 4583 c-151 -8 -368 -33 -411 -48 -25 -9 -58 -28 -72 -43 -73
-78 -254 -446 -412 -837 -49 -122 -95 -231 -125 -300 -31 -71 -50 -119 -50
-126 0 -17 155 54 248 114 248 160 325 381 200 566 -31 47 -30 52 17 69 17 6
98 40 180 77 83 36 174 76 203 87 29 12 49 24 45 29 -7 6 -113 24 -226 36 -27
3 -50 11 -52 17 -16 52 -14 64 8 69 47 11 551 187 560 196 5 5 6 30 3 55 -6
39 -10 46 -29 44 -12 -1 -51 -3 -87 -5z"/>
</g>
</svg>
